<?xml version="1.0" standalone="no"?>
<!DOCTYPE svg PUBLIC "-//W3C//DTD SVG 20010904//EN"
 "http://www.w3.org/TR/2001/REC-SVG-20010904/DTD/svg10.dtd">
<svg version="1.0" xmlns="http://www.w3.org/2000/svg"
 width="2016.000000pt" height="2016.000000pt" viewBox="0 0 2016.000000 2016.000000"
 preserveAspectRatio="xMidYMid meet">
<metadata>
Created by potrace 1.14, written by Peter Selinger 2001-2017
</metadata>
<g transform="translate(0.000000,2016.000000) scale(0.100000,-0.100000)"
fill="#000000" stroke="none">
<path d="M3910 19240 c-802 -31 -1400 -239 -1945 -678 -66 -53 -197 -173 -290
-267 -187 -187 -225 -228 -225 -244 0 -6 -4 -11 -8 -11 -7 0 -82 -94 -82 -104
0 -2 -13 -18 -30 -36 -16 -18 -30 -37 -30 -42 0 -6 -22 -41 -50 -78 -27 -37
-50 -71 -50 -75 0 -5 -6 -16 -14 -24 -15 -17 -48 -75 -100 -176 -17 -33 -34
-61 -38 -63 -5 -2 -8 -10 -8 -18 0 -8 -4 -22 -9 -32 -20 -37 -51 -109 -51
-118 0 -6 -5 -15 -12 -22 -6 -6 -18 -28 -25 -49 -24 -64 -93 -277 -96 -293 -1
-8 -5 -19 -9 -25 -8 -13 -58 -240 -62 -280 -2 -18 -5 -36 -9 -41 -7 -12 -16
-66 -21 -124 -2 -25 -7 -58 -10 -75 -3 -16 -8 -70 -12 -120 -3 -49 -7 -103 -9
-120 -4 -30 -28 -366 -40 -575 -10 -169 -21 -676 -24 -1065 -1 -187 -6 -531
-11 -765 -12 -497 -12 -1882 -1 -2555 5 -258 6 -1395 4 -2525 -2 -1130 -3
-2332 -3 -2670 1 -574 15 -1403 24 -1460 2 -14 7 -79 11 -145 23 -448 74 -816
151 -1105 77 -290 239 -620 473 -960 70 -102 124 -163 296 -336 343 -344 544
-494 980 -735 451 -248 814 -355 1370 -403 406 -35 731 -44 1760 -51 490 -3
1270 -8 1735 -12 1235 -9 7130 -4 7790 7 979 17 1279 52 1775 210 439 139 798
312 1099 528 223 161 448 364 588 531 140 169 389 561 499 789 137 284 251
649 293 946 38 262 37 206 52 4936 3 1081 9 2152 14 2380 4 228 8 619 9 869 1
250 4 457 6 461 3 5 5 667 5 1472 0 1655 -6 1890 -66 2393 -37 314 -152 697
-289 960 -225 435 -615 911 -1000 1222 -124 101 -343 253 -364 253 -5 0 -11 4
-13 8 -5 12 -192 115 -313 172 -223 106 -516 209 -646 230 -39 6 -79 14 -88
19 -9 5 -35 8 -58 6 -24 -1 -78 4 -120 12 -43 7 -110 18 -148 23 -39 5 -84 11
-100 14 -17 3 -92 7 -168 11 -76 3 -160 10 -185 17 -56 13 -4115 18 -5062 5
-634 -8 -3887 -10 -3985 -2 -107 9 -2844 13 -3055 5z m-297 -367 c-7 -2 -21
-2 -30 0 -10 3 -4 5 12 5 17 0 24 -2 18 -5z m-156 -20 c-9 -2 -14 -9 -11 -15
4 -7 2 -8 -4 -4 -20 12 -13 26 11 25 17 -1 18 -2 4 -6z m-79 -19 c-10 -10 -23
-14 -34 -10 -16 6 -16 8 -4 16 8 6 24 10 35 10 18 0 18 -1 3 -16z m37 -4 c3
-5 1 -10 -4 -10 -6 0 -11 5 -11 10 0 6 2 10 4 10 3 0 8 -4 11 -10z m-121 -12
c-5 -8 -1 -9 12 -4 12 5 16 4 9 -3 -15 -14 -125 -40 -143 -34 -10 4 -14 2 -9
-2 9 -11 -46 -35 -79 -35 -14 0 -36 -7 -49 -16 -13 -9 -30 -17 -37 -18 -29 -5
-63 -19 -70 -29 -3 -6 -14 -11 -25 -12 -21 -3 -56 -16 -63 -24 -3 -3 -32 -19
-65 -36 -188 -94 -515 -300 -599 -376 -10 -10 -25 -15 -33 -12 -7 3 -13 1 -11
-5 3 -10 -12 -26 -131 -130 -73 -65 -77 -68 -153 -139 -31 -29 -53 -54 -50
-57 3 -4 -2 -6 -12 -6 -9 0 -14 -4 -11 -10 3 -5 3 -10 -2 -10 -4 0 -19 -18
-33 -40 -13 -22 -30 -40 -37 -40 -7 0 -13 -7 -13 -15 0 -21 -115 -166 -125
-157 -5 4 -5 2 -2 -4 7 -13 -77 -132 -99 -141 -10 -4 -14 -13 -10 -26 3 -14
-5 -29 -27 -50 -18 -17 -26 -27 -19 -23 15 9 15 1 0 -27 -11 -21 -11 -21 -19
-2 -6 17 -8 16 -8 -8 -1 -16 -5 -26 -10 -22 -6 3 -8 -5 -6 -17 4 -19 0 -23
-20 -23 -14 0 -25 1 -25 1 0 1 7 18 15 38 10 22 20 34 27 30 7 -5 9 2 6 19 -3
15 -2 24 3 22 8 -6 39 50 39 72 0 7 9 13 19 13 13 0 18 5 14 18 -2 10 6 33 19
52 13 19 27 43 31 53 4 10 11 15 17 12 5 -3 10 1 10 10 0 8 9 23 20 32 11 10
20 25 20 35 0 9 9 20 20 23 11 3 20 13 20 21 0 8 5 14 10 14 6 0 16 11 22 25
6 14 19 25 30 25 17 0 19 6 22 52 1 9 5 20 9 24 4 5 5 0 1 -10 -5 -13 -3 -17
6 -14 7 2 14 12 16 22 5 34 14 46 33 46 15 0 19 5 14 17 -5 12 -2 15 10 10 11
-4 17 2 22 24 4 17 9 28 13 25 8 -9 43 25 36 35 -3 5 4 9 15 9 14 0 21 6 21
20 0 11 5 21 10 21 6 1 16 2 23 3 6 1 11 9 11 19 -1 9 2 14 7 11 5 -3 13 6 19
20 6 16 17 26 30 26 13 0 20 7 20 20 0 11 5 20 12 20 6 0 26 11 45 26 18 14
37 23 41 20 5 -3 9 2 9 10 0 9 -6 13 -14 10 -8 -3 -11 -1 -8 4 4 6 12 10 18 9
33 -4 48 3 57 27 6 14 16 24 23 21 6 -2 21 -1 32 4 19 7 19 8 -2 8 -12 1 -24
5 -27 9 -3 5 8 6 25 4 16 -2 29 0 28 4 -1 5 -1 16 0 24 1 13 3 13 10 1 7 -11
17 -6 46 22 32 31 40 35 59 25 11 -6 18 -7 13 -3 -11 13 42 63 61 59 21 -5 49
12 38 23 -5 4 -11 2 -13 -4 -3 -7 -9 -13 -15 -13 -6 0 -6 6 2 15 16 19 25 19
46 -2 16 -16 17 -16 12 -2 -8 22 35 64 57 56 9 -4 20 1 27 13 7 11 18 20 24
20 6 0 19 9 29 20 10 11 25 20 34 20 9 0 27 7 39 16 13 9 31 13 45 9 20 -6 21
-5 4 8 -16 13 -14 15 23 21 43 7 110 35 110 47 0 4 10 9 23 12 21 6 21 5 3 -8
-18 -13 -17 -14 12 -12 22 1 31 7 29 17 -1 8 4 14 11 13 6 -2 12 2 12 7 0 6
11 10 23 10 13 0 37 7 54 15 35 17 121 35 149 31 10 -2 13 -1 7 1 -7 3 -13 9
-13 14 0 6 4 7 10 4 5 -3 18 -1 27 4 25 15 66 14 57 -1z m14171 -256 c-3 -3
-11 0 -18 7 -9 10 -8 11 6 5 10 -3 15 -9 12 -12z m50 -22 c-3 -5 -12 -10 -18
-10 -7 0 -6 4 3 10 19 12 23 12 15 0z m220 -101 c31 -16 61 -27 66 -24 5 4 9
-1 9 -9 0 -9 7 -16 15 -16 8 0 29 -13 47 -28 18 -15 53 -40 78 -56 25 -16 55
-38 68 -49 12 -11 22 -18 22 -15 0 3 17 -11 38 -30 20 -20 36 -39 35 -43 -2
-5 5 -5 14 -2 13 5 15 2 10 -11 -5 -12 -3 -16 5 -13 7 2 23 -10 36 -27 12 -16
22 -27 22 -23 0 3 23 -16 50 -43 28 -27 50 -56 50 -65 0 -9 4 -13 10 -10 5 3
23 -14 39 -37 17 -24 51 -69 77 -101 26 -32 48 -68 49 -79 1 -12 6 -23 11 -25
24 -8 39 -25 27 -29 -7 -3 -9 -13 -6 -22 6 -15 5 -15 -10 -3 -9 7 -17 22 -17
32 0 9 -7 25 -17 34 -14 14 -14 18 -2 26 10 7 5 8 -13 3 -16 -3 -28 -2 -28 2
0 5 -14 24 -30 43 -16 18 -27 37 -24 42 3 5 0 9 -7 9 -21 0 -48 31 -42 48 5
11 3 13 -7 7 -10 -6 -12 -4 -7 8 4 12 2 14 -10 10 -12 -5 -15 -2 -10 10 4 12
2 14 -10 10 -13 -5 -15 -2 -10 11 4 9 3 15 -2 12 -5 -3 -59 44 -121 104 -62
61 -116 110 -121 110 -5 0 -9 7 -9 15 0 8 -7 15 -15 15 -8 0 -15 7 -15 16 0 8
-4 12 -10 9 -5 -3 -10 -1 -10 4 0 6 -5 11 -11 11 -13 0 -77 47 -105 77 -12 13
-26 23 -33 23 -6 0 -11 5 -11 10 0 6 -6 10 -12 8 -22 -4 -62 14 -77 34 -7 11
-18 17 -25 15 -7 -3 -23 1 -36 8 -22 12 -22 13 -4 24 17 11 16 12 -8 6 -16 -3
-28 -1 -28 4 0 16 34 18 51 4 10 -8 43 -28 74 -44z m805 -780 c0 -10 -4 -19
-10 -19 -5 0 -10 12 -10 26 0 14 4 23 10 19 6 -3 10 -15 10 -26z m33 -45 c-7
-19 -23 -7 -23 18 0 17 3 18 14 8 8 -6 12 -18 9 -26z m43 -32 c-8 -14 10 -67
23 -64 6 1 11 -2 11 -8 0 -5 -7 -10 -15 -10 -8 0 -19 16 -24 38 -14 46 -14 52
0 52 5 0 8 -4 5 -8z m-17273 -350 c-10 -11 -21 -17 -25 -15 -4 2 -14 -11 -23
-29 -14 -30 -15 -31 -10 -5 7 35 34 67 57 67 17 0 17 -1 1 -18z m-66 -118 c-3
-3 -12 -4 -19 -1 -8 3 -5 6 6 6 11 1 17 -2 13 -5z m7 -35 c-8 -14 -34 -10 -34
5 0 9 7 12 20 9 11 -3 17 -9 14 -14z m-31 -28 c3 8 6 1 6 -14 1 -16 -3 -26 -9
-22 -6 3 -7 -1 -4 -10 4 -8 -3 -39 -15 -68 -11 -28 -26 -65 -32 -82 -7 -16
-13 -32 -14 -35 -15 -67 -40 -138 -45 -135 -4 3 -8 -5 -7 -18 0 -12 -3 -35 -7
-52 -5 -16 -10 -46 -13 -65 -3 -19 -14 -49 -24 -68 -15 -26 -17 -37 -8 -54 8
-15 8 -19 0 -14 -7 5 -11 -4 -11 -23 0 -30 -13 -41 -25 -21 -3 6 -1 10 5 10 7
0 10 7 7 15 -4 8 -2 17 3 20 5 3 7 20 3 37 -3 18 -2 29 3 25 5 -3 10 20 10 51
1 61 21 160 36 179 5 7 7 17 4 22 -4 5 -2 13 4 16 6 4 8 15 5 26 -4 13 2 30
19 50 15 17 24 35 20 40 -3 5 7 34 21 64 15 30 25 62 21 70 -4 10 -2 14 5 9 8
-4 9 1 4 16 -5 15 -4 20 4 16 6 -4 11 0 11 11 0 14 2 15 9 4 7 -11 9 -11 14 0z
m-196 -793 c-3 -8 -6 -5 -6 6 -1 11 2 17 5 13 3 -3 4 -12 1 -19z m8950 -113
c0 -10 -5 -11 -18 -4 -24 12 -80 12 -59 -1 8 -5 11 -13 6 -17 -5 -4 -11 -2
-13 5 -3 6 -14 12 -24 12 -11 0 -17 -4 -14 -10 3 -5 -4 -11 -17 -11 -40 -2
-93 -9 -105 -14 -7 -2 -13 0 -13 4 0 5 -11 8 -25 7 -14 0 -25 -4 -25 -7 0 -4
-11 -9 -24 -11 -16 -3 -23 -1 -19 7 6 17 -78 1 -111 -20 -13 -9 -27 -12 -30
-7 -3 5 -27 4 -58 -4 -29 -8 -65 -14 -80 -14 -16 0 -31 -6 -34 -14 -4 -10 -14
-12 -40 -6 -19 4 -36 4 -39 -1 -3 -4 -12 -6 -19 -3 -7 3 -16 -2 -19 -10 -5
-13 2 -16 36 -18 56 -2 60 -2 75 -12 7 -4 19 -3 27 4 10 8 18 8 33 -1 11 -7
27 -9 36 -6 49 19 1016 30 1269 15 93 -6 117 -5 109 5 -8 9 -4 12 15 14 17 1
21 -2 13 -7 -27 -17 3 -28 77 -29 43 0 98 -4 123 -7 38 -6 42 -5 30 7 -8 8
-34 15 -58 16 -49 1 -63 10 -42 23 12 8 10 10 -7 10 -14 0 -23 6 -23 16 0 13
-6 15 -27 10 -37 -9 -42 -9 -88 3 -22 6 -57 11 -77 11 -21 0 -38 5 -38 10 0 6
-7 10 -16 10 -8 0 -12 -4 -9 -10 3 -5 -1 -10 -9 -10 -9 0 -16 4 -16 9 0 5 -7
12 -16 15 -8 3 -12 2 -9 -4 8 -13 2 -13 -27 0 -13 6 -66 14 -118 19 l-95 8 71
2 c39 0 74 4 77 8 12 11 250 0 452 -22 228 -25 443 -65 745 -140 414 -102 854
-267 1278 -479 209 -105 712 -394 742 -426 3 -3 77 -57 165 -120 285 -203 500
-383 749 -628 321 -317 700 -763 868 -1022 19 -30 66 -102 103 -160 37 -58 78
-121 90 -140 13 -19 65 -107 115 -195 498 -864 868 -2033 950 -3000 6 -71 18
-202 25 -290 23 -254 18 -768 -10 -1010 -2 -22 -7 -65 -10 -95 -11 -99 -57
-344 -71 -377 -7 -18 -17 -33 -22 -33 -27 0 -204 264 -315 470 -173 322 -241
454 -291 565 -91 203 -228 465 -288 552 -310 447 -412 593 -496 707 -102 140
-282 326 -437 451 -60 49 -143 117 -182 153 -40 35 -77 61 -82 58 -5 -3 -34
-48 -64 -99 -30 -50 -110 -182 -177 -292 -342 -556 -536 -892 -605 -1045 -16
-36 -70 -144 -119 -240 -49 -96 -108 -212 -130 -257 -23 -45 -45 -81 -50 -80
-10 3 -90 188 -157 366 -29 75 -84 213 -124 306 -40 94 -103 242 -140 330 -37
88 -97 223 -132 300 -36 77 -78 168 -94 202 -16 34 -51 108 -80 165 -90 180
-186 393 -344 759 -85 195 -195 447 -246 560 -50 112 -138 308 -194 434 -93
209 -260 576 -348 765 -19 41 -79 165 -132 275 -152 311 -241 505 -320 695
-164 394 -251 583 -347 750 -30 52 -79 140 -108 195 -56 107 -75 133 -87 121
-4 -4 -3 -10 3 -14 5 -4 11 -34 12 -67 1 -33 5 -123 10 -200 5 -77 10 -261 11
-410 2 -368 -27 -1730 -38 -1780 -5 -23 -9 504 -10 1259 0 804 -4 1303 -10
1309 -12 12 -31 0 -31 -19 0 -29 -115 -268 -187 -389 -39 -66 -128 -208 -197
-315 -167 -260 -392 -635 -502 -833 -32 -59 -95 -170 -138 -245 -44 -75 -105
-182 -136 -237 -100 -176 -309 -534 -444 -760 -132 -219 -175 -296 -447 -790
-78 -143 -181 -327 -227 -410 -47 -82 -134 -240 -195 -350 -61 -110 -157 -285
-215 -390 -58 -104 -126 -228 -152 -275 -58 -106 -392 -663 -468 -782 -31 -49
-62 -87 -69 -86 -7 2 -58 95 -114 208 -112 227 -218 409 -336 576 -184 260
-244 342 -261 357 -18 16 -20 13 -52 -61 -74 -172 -188 -375 -303 -539 -103
-147 -181 -268 -384 -598 -88 -143 -192 -309 -230 -370 -38 -60 -125 -198
-193 -305 -158 -251 -266 -432 -420 -705 -206 -368 -555 -971 -617 -1068 -65
-101 -227 -385 -278 -487 -25 -49 -49 -90 -54 -90 -9 0 -85 100 -125 165 -130
207 -352 1010 -395 1430 -20 191 -24 305 -11 305 9 0 11 -12 7 -45 -6 -38 -3
-49 14 -66 17 -17 23 -19 30 -8 4 7 6 16 3 20 -2 4 -5 48 -5 98 0 50 -5 91
-10 91 -5 0 -9 16 -9 35 0 19 -4 35 -9 35 -6 0 -9 44 -7 107 3 90 1 110 -13
120 -15 12 -15 14 2 27 13 10 15 15 5 18 -8 3 -13 22 -13 54 0 38 -3 49 -16
48 -13 -1 -16 13 -16 85 -3 183 -13 412 -18 422 -4 5 -3 23 0 40 4 18 3 29 -2
26 -5 -3 -10 12 -10 34 -1 22 2 37 6 34 5 -3 6 10 2 28 -4 17 -6 43 -4 57 1
14 2 81 3 150 1 112 12 287 25 410 30 271 48 390 91 587 128 599 306 1140 533
1631 166 357 267 535 515 902 280 414 442 608 830 995 273 272 478 464 610
570 21 17 49 40 64 53 15 13 79 63 143 110 63 48 128 97 145 109 54 42 278
190 399 265 461 287 903 479 1560 678 339 102 747 185 1010 205 44 4 86 8 93
10 7 3 74 5 150 6 75 0 155 4 177 8 22 3 99 7 171 8 105 1 131 -1 131 -12z
m526 -2 c-7 -2 -19 -2 -25 0 -7 3 -2 5 12 5 14 0 19 -2 13 -5z m407 -118 c11
-13 7 -15 -34 -14 -52 2 -56 6 -23 19 32 13 43 12 57 -5z m3213 -6602 c4 -3 1
-13 -6 -21 -10 -13 -9 -14 3 -7 10 5 12 5 5 -2 -5 -6 -27 -13 -48 -16 l-38 -6
21 30 c20 27 48 37 63 22z m-152 -186 c-10 -9 -11 -8 -5 6 3 10 9 15 12 12 3
-3 0 -11 -7 -18z m-10610 -560 c-8 -8 -11 -3 -11 19 1 25 2 27 11 11 8 -14 8
-22 0 -30z m-4 -89 c-3 -8 -6 -5 -6 6 -1 11 2 17 5 13 3 -3 4 -12 1 -19z m20
-210 c-3 -7 -5 -2 -5 12 0 14 2 19 5 13 2 -7 2 -19 0 -25z m10 -80 c-3 -8 -6
-5 -6 6 -1 11 2 17 5 13 3 -3 4 -12 1 -19z m9974 -261 c-10 -9 -11 -8 -5 6 3
10 9 15 12 12 3 -3 0 -11 -7 -18z m-1 -20 c0 -2 -10 -12 -21 -23 -22 -19 -22
-19 -8 4 12 19 29 30 29 19z m-67 -97 c-16 -28 -35 -64 -43 -81 -9 -16 -19
-27 -23 -23 -4 4 -7 -1 -7 -11 0 -15 -71 -95 -86 -95 -3 0 14 28 38 63 68 95
142 197 145 197 2 0 -9 -23 -24 -50z m-169 -234 c-3 -8 -13 -17 -22 -21 -13
-5 -13 -2 3 15 21 24 26 25 19 6z m-3039 -596 c-27 -4 -43 -8 -35 -9 21 -2
-38 -38 -72 -45 -15 -2 -33 -8 -40 -12 -9 -6 -9 -3 1 9 7 9 10 17 5 17 -15 0
36 32 64 40 15 5 50 8 77 8 l50 -1 -50 -7z m-161 -91 c-3 -5 -9 -7 -14 -4 -4
2 -13 -8 -20 -24 -15 -37 -45 -65 -60 -56 -8 5 4 24 36 56 26 26 51 46 56 43
5 -3 6 -10 2 -15z m-94 -98 c0 -6 -5 -13 -10 -16 -6 -4 -8 -10 -5 -14 2 -5 -2
-17 -10 -27 -8 -10 -15 -14 -15 -8 0 5 6 16 13 24 6 7 -6 0 -28 -16 -38 -27
-39 -27 -20 -4 54 68 75 85 75 61z m-91 -104 c-9 -7 -18 -19 -22 -27 -5 -13
-6 -13 -6 1 -1 17 18 39 34 39 5 0 3 -6 -6 -13z m-55 -72 c-4 -8 -11 -15 -16
-15 -6 0 -5 6 2 15 7 8 14 15 16 15 2 0 1 -7 -2 -15z m-154 -229 c0 -2 -8 -10
-17 -17 -16 -13 -17 -12 -4 4 13 16 21 21 21 13z m-204 -304 c-18 -16 -18 -16
-6 6 6 13 14 21 18 18 3 -4 -2 -14 -12 -24z m-528 -732 c-7 -10 -14 -17 -17
-15 -4 4 18 35 25 35 2 0 -1 -9 -8 -20z m-68 -84 c0 -2 -8 -10 -17 -17 -16
-13 -17 -12 -4 4 13 16 21 21 21 13z m-70 -90 c0 -2 -8 -10 -17 -17 -16 -13
-17 -12 -4 4 13 16 21 21 21 13z m-26 -44 c3 -5 -1 -9 -9 -9 -8 0 -12 4 -9 9
3 4 7 8 9 8 2 0 6 -4 9 -8z m-34 -37 c-6 -8 -8 -20 -4 -26 4 -8 3 -9 -4 -5 -7
4 -12 1 -12 -8 0 -9 -3 -16 -8 -16 -4 0 -15 -19 -25 -41 -10 -23 -20 -39 -23
-36 -9 8 70 147 83 147 3 0 0 -7 -7 -15z m2965 -2375 c2 -3 0 -12 -5 -19 -8
-15 -20 -15 -145 -9 -44 3 -91 1 -105 -3 -14 -4 -60 -9 -102 -12 -74 -4 -111
4 -95 20 19 19 441 41 452 23z"/>
<path d="M18345 17890 c3 -5 8 -10 11 -10 2 0 4 5 4 10 0 6 -5 10 -11 10 -5 0
-7 -4 -4 -10z"/>
<path d="M1215 16969 c-10 -30 0 -33 13 -4 6 14 7 25 2 25 -5 0 -12 -9 -15
-21z"/>
<path d="M1157 16813 c-10 -9 -9 -23 2 -23 5 0 11 7 15 15 5 15 -5 20 -17 8z"/>
<path d="M1083 16525 c-3 -9 -3 -18 -1 -21 3 -3 8 4 11 16 6 23 -1 27 -10 5z"/>
<path d="M10968 16063 c6 -2 18 -2 25 0 6 3 1 5 -13 5 -14 0 -19 -2 -12 -5z"/>
<path d="M11025 16050 c3 -5 8 -10 11 -10 2 0 4 5 4 10 0 6 -5 10 -11 10 -5 0
-7 -4 -4 -10z"/>
<path d="M9187 16029 c-9 -6 -26 -7 -37 -4 -27 9 -87 -4 -70 -15 7 -5 19 -6
27 -3 7 3 13 1 13 -5 0 -6 -6 -12 -12 -15 -17 -6 30 -7 61 0 20 3 22 6 10 14
-12 7 -11 9 3 9 9 0 20 5 23 11 10 15 2 19 -18 8z"/>
<path d="M11132 16031 c-16 -10 43 -21 103 -20 38 1 37 2 -20 15 -73 16 -67
16 -83 5z"/>
<path d="M11294 16009 c-3 -5 -2 -9 3 -9 4 0 18 -3 31 -6 12 -4 22 -2 22 4 0
13 -49 22 -56 11z"/>
<path d="M11374 15995 c18 -14 103 -36 134 -34 25 1 -17 16 -91 33 -51 12 -59
12 -43 1z"/>
<path d="M9013 15985 c2 -5 9 -10 15 -9 7 1 23 2 37 3 14 0 25 5 25 11 0 5
-18 9 -40 7 -22 -1 -38 -6 -37 -12z"/>
<path d="M9213 15993 c9 -2 25 -2 35 0 9 3 1 5 -18 5 -19 0 -27 -2 -17 -5z"/>
<path d="M8852 15973 c-6 -2 -10 -9 -7 -13 7 -11 35 -2 35 11 0 10 -8 10 -28
2z"/>
<path d="M8920 15970 c0 -5 5 -10 10 -10 6 0 10 5 10 10 0 6 -4 10 -10 10 -5
0 -10 -4 -10 -10z"/>
<path d="M11565 15946 c22 -7 42 -12 44 -10 8 7 -4 12 -44 18 l-40 5 40 -13z"/>
<path d="M11638 15918 c5 -5 16 -8 23 -6 8 3 3 7 -10 11 -17 4 -21 3 -13 -5z"/>
<path d="M12168 15753 c7 -3 16 -2 19 1 4 3 -2 6 -13 5 -11 0 -14 -3 -6 -6z"/>
</g>
</svg>
